<svg>
<path d="M9.6 9.6001C8.32696 9.6001 7.10606 10.1058 6.20589 11.006C5.30572 11.9062 4.8 13.1271 4.8 14.4001V16.8001H43.2V14.4001C43.2 13.1271 42.6943 11.9062 41.7941 11.006C40.8939 10.1058 39.673 9.6001 38.4 9.6001H9.6Z" fill="#FF1EAB" stroke="#FF1EAB"/>
<path fill-rule="evenodd" clip-rule="evenodd" d="M43.2 21.6001H4.8V33.6001C4.8 34.8731 5.30572 36.094 6.20589 36.9942C7.10606 37.8944 8.32696 38.4001 9.6 38.4001H38.4C39.673 38.4001 40.8939 37.8944 41.7941 36.9942C42.6943 36.094 43.2 34.8731 43.2 33.6001V21.6001ZM9.6 31.2001C9.6 30.5636 9.85286 29.9531 10.3029 29.503C10.753 29.053 11.3635 28.8001 12 28.8001H14.4C15.0365 28.8001 15.647 29.053 16.0971 29.503C16.5471 29.9531 16.8 30.5636 16.8 31.2001C16.8 31.8366 16.5471 32.4471 16.0971 32.8972C15.647 33.3472 15.0365 33.6001 14.4 33.6001H12C11.3635 33.6001 10.753 33.3472 10.3029 32.8972C9.85286 32.4471 9.6 31.8366 9.6 31.2001ZM21.6 28.8001C20.9635 28.8001 20.353 29.053 19.9029 29.503C19.4529 29.9531 19.2 30.5636 19.2 31.2001C19.2 31.8366 19.4529 32.4471 19.9029 32.8972C20.353 33.3472 20.9635 33.6001 21.6 33.6001H24C24.6365 33.6001 25.247 33.3472 25.6971 32.8972C26.1471 32.4471 26.4 31.8366 26.4 31.2001C26.4 30.5636 26.1471 29.9531 25.6971 29.503C25.247 29.053 24.6365 28.8001 24 28.8001H21.6Z" fill="#81E6D9"/>
</svg>
