<svg>
<path fill-rule="evenodd" clip-rule="evenodd" d="M17.6928 14.5727C17.2567 14.3982 16.7789 14.3554 16.3187 14.4498C15.8585 14.5442 15.4361 14.7716 15.1039 15.1038C14.7717 15.436 14.5443 15.8584 14.4499 16.3186C14.3555 16.7788 14.3982 17.2566 14.5728 17.6927L24.1728 41.6928C24.3448 42.1223 24.6373 42.493 25.0151 42.7601C25.3929 43.0273 25.8398 43.1795 26.3022 43.1986C26.7645 43.2176 27.2224 43.1025 27.6209 42.8673C28.0193 42.6321 28.3413 42.2867 28.548 41.8728L31.86 35.2512L39.1032 42.4992C39.5535 42.9492 40.1642 43.2019 40.8009 43.2016C41.4375 43.2014 42.048 42.9483 42.498 42.498C42.948 42.0476 43.2007 41.437 43.2005 40.8003C43.2003 40.1637 42.9471 39.5532 42.4968 39.1031L35.2512 31.8552L41.8752 28.5456C42.2884 28.3383 42.6329 28.0162 42.8675 27.6179C43.102 27.2196 43.2165 26.762 43.1972 26.3002C43.178 25.8384 43.0257 25.3919 42.7589 25.0145C42.492 24.6371 42.1218 24.3448 41.6928 24.1727L17.6928 14.5727Z" fill="#81E6D9"/>
<path fill-rule="evenodd" clip-rule="evenodd" d="M16.0128 4.58631C15.848 3.97143 15.4456 3.44723 14.8942 3.12901C14.3429 2.8108 13.6877 2.72465 13.0728 2.88951C12.4579 3.05437 11.9337 3.45673 11.6155 4.00809C11.2973 4.55945 11.2112 5.21463 11.376 5.82951L11.9976 8.14791C12.1625 8.76279 12.5648 9.28699 13.1162 9.6052C13.6676 9.92341 14.3227 10.0096 14.9376 9.84471C15.5525 9.67985 16.0767 9.27748 16.3949 8.72613C16.7131 8.17477 16.7993 7.51959 16.6344 6.90471L16.0104 4.58631H16.0128ZM5.82961 11.3759C5.52463 11.2928 5.20622 11.2707 4.89268 11.311C4.57914 11.3512 4.27665 11.453 4.00257 11.6106C3.72849 11.7681 3.48823 11.9782 3.29558 12.2288C3.10293 12.4794 2.96169 12.7656 2.87998 13.071C2.79826 13.3764 2.77767 13.6949 2.8194 14.0082C2.86113 14.3216 2.96435 14.6236 3.12314 14.8969C3.28192 15.1703 3.49314 15.4096 3.74467 15.601C3.99619 15.7925 4.28307 15.9324 4.58881 16.0127L6.90721 16.6343C7.52098 16.7955 8.17361 16.707 8.72232 16.3883C9.27104 16.0695 9.67118 15.5464 9.83522 14.9334C9.99927 14.3204 9.91385 13.6674 9.59766 13.1172C9.28147 12.567 8.76025 12.1644 8.14801 11.9975L5.82961 11.3735V11.3759ZM26.9832 10.0103C27.206 9.78732 27.3828 9.52263 27.5033 9.23135C27.6238 8.94007 27.6858 8.6279 27.6857 8.31266C27.6856 7.99742 27.6234 7.6853 27.5026 7.3941C27.3819 7.1029 27.205 6.83834 26.982 6.61551C26.759 6.39268 26.4943 6.21596 26.2031 6.09542C25.9118 5.97489 25.5996 5.91291 25.2844 5.91302C24.9691 5.91313 24.657 5.97533 24.3658 6.09607C24.0746 6.21681 23.81 6.39372 23.5872 6.61671L21.8904 8.31351C21.6674 8.53649 21.4905 8.80121 21.3699 9.09256C21.2492 9.3839 21.1871 9.69616 21.1871 10.0115C21.1871 10.3269 21.2492 10.6391 21.3699 10.9305C21.4905 11.2218 21.6674 11.4865 21.8904 11.7095C22.1134 11.9325 22.3781 12.1094 22.6695 12.2301C22.9608 12.3507 23.2731 12.4128 23.5884 12.4128C23.9038 12.4128 24.216 12.3507 24.5074 12.2301C24.7987 12.1094 25.0634 11.9325 25.2864 11.7095L26.9832 10.0103ZM10.0128 26.9831L11.7096 25.2863C12.1603 24.8363 12.4137 24.2257 12.4141 23.5888C12.4146 22.9519 12.162 22.341 11.712 21.8903C11.262 21.4397 10.6514 21.1862 10.0145 21.1858C9.37764 21.1853 8.76667 21.4379 8.31601 21.8879L6.61681 23.5847C6.16648 24.035 5.91348 24.6458 5.91348 25.2827C5.91348 25.9196 6.16648 26.5304 6.61681 26.9807C7.06715 27.431 7.67794 27.684 8.31481 27.684C8.95169 27.684 9.56247 27.431 10.0128 26.9807V26.9831Z" fill="#FF1EAB"/>
</svg>
