<svg>
<g clip-path="url(#clip0_613_808)">
<path d="M18.5 36C28.4411 36 36.5 27.9411 36.5 18C36.5 8.05887 28.4411 0 18.5 0C8.55887 0 0.5 8.05887 0.5 18C0.5 27.9411 8.55887 36 18.5 36Z" fill="url(#paint0_linear_613_808)"/>
<path fill-rule="evenodd" clip-rule="evenodd" d="M8.64778 17.81C13.8951 15.5238 17.3942 14.0166 19.145 13.2884C24.1438 11.2092 25.1825 10.8481 25.8595 10.8361C26.0084 10.8335 26.3413 10.8704 26.557 11.0454C26.7391 11.1932 26.7892 11.3928 26.8132 11.5329C26.8371 11.673 26.867 11.9921 26.8433 12.2415C26.5724 15.0877 25.4003 21.9947 24.804 25.1825C24.5516 26.5314 24.0548 26.9837 23.5738 27.0279C22.5285 27.1241 21.7348 26.3371 20.7224 25.6735C19.1381 24.635 18.2431 23.9886 16.7054 22.9752C14.9282 21.8041 16.0803 21.1604 17.0931 20.1085C17.3581 19.8332 21.9637 15.644 22.0528 15.264C22.064 15.2165 22.0743 15.0393 21.9691 14.9458C21.8638 14.8522 21.7085 14.8842 21.5964 14.9097C21.4375 14.9457 18.9067 16.6185 14.0039 19.928C13.2855 20.4213 12.6349 20.6616 12.0519 20.649C11.4092 20.6352 10.1729 20.2857 9.25384 19.9869C8.12659 19.6205 7.23068 19.4268 7.30869 18.8045C7.34933 18.4803 7.79569 18.1488 8.64778 17.81Z" fill="white"/>
</g>
<defs>
<linearGradient id="paint0_linear_613_808" x1="18.5" y1="0" x2="18.5" y2="35.733" gradientUnits="userSpaceOnUse">
<stop stop-color="#2AABEE"/>
<stop offset="1" stop-color="#229ED9"/>
</linearGradient>
<clipPath id="clip0_613_808">
<rect width="36" height="36" fill="white" transform="translate(0.5)"/>
</clipPath>
</defs>
</svg>
