<svg width="37" height="36" viewBox="0 0 37 36" fill="none" xmlns="http://www.w3.org/2000/svg">
<g clip-path="url(#clip0_613_2129)">
<path d="M18.5 36C28.4411 36 36.5 27.9411 36.5 18C36.5 8.05887 28.4411 0 18.5 0C8.55887 0 0.5 8.05887 0.5 18C0.5 27.9411 8.55887 36 18.5 36Z" fill="url(#paint0_linear_613_2129)"/>
<path fill-rule="evenodd" clip-rule="evenodd" d="M8.64802 17.8099C13.8954 15.5237 17.3945 14.0165 19.1452 13.2883C24.144 11.2092 25.1827 10.848 25.8597 10.8361C26.0086 10.8334 26.3416 10.8703 26.5572 11.0453C26.7393 11.1931 26.7894 11.3927 26.8134 11.5328C26.8374 11.6729 26.8672 11.992 26.8435 12.2414C26.5726 15.0876 25.4005 21.9947 24.8042 25.1825C24.5519 26.5314 24.055 26.9836 23.5741 27.0279C22.5288 27.1241 21.735 26.3371 20.7226 25.6734C19.1384 24.635 18.2434 23.9885 16.7056 22.9751C14.9284 21.804 16.0805 21.1603 17.0933 20.1084C17.3584 19.8331 21.9639 15.644 22.0531 15.2639C22.0642 15.2164 22.0746 15.0393 21.9693 14.9457C21.8641 14.8522 21.7087 14.8841 21.5966 14.9096C21.4378 14.9457 18.9069 16.6184 14.0041 19.9279C13.2858 20.4212 12.6351 20.6616 12.0521 20.649C11.4094 20.6351 10.1731 20.2856 9.25409 19.9869C8.12684 19.6204 7.23092 19.4267 7.30893 18.8044C7.34957 18.4803 7.79593 18.1488 8.64802 17.8099Z" fill="white"/>
</g>
<defs>
<linearGradient id="paint0_linear_613_2129" x1="18.5" y1="0" x2="18.5" y2="35.733" gradientUnits="userSpaceOnUse">
<stop stop-color="#2AABEE"/>
<stop offset="1" stop-color="#229ED9"/>
</linearGradient>
<clipPath id="clip0_613_2129">
<rect width="36" height="36" fill="white" transform="translate(0.5)"/>
</clipPath>
</defs>
</svg>
