<svg>
<path fill-rule="evenodd" clip-rule="evenodd" d="M29.748 6.1271C29.5959 5.82239 29.3807 5.55354 29.1166 5.33842C28.8526 5.1233 28.5458 4.96685 28.2166 4.87945C27.8875 4.79205 27.5435 4.7757 27.2075 4.83151C26.8715 4.88731 26.5513 5.01398 26.268 5.2031C25.44 5.7551 24.7944 6.5423 24.2952 7.3151C23.7816 8.1071 23.328 9.0263 22.9272 9.9935C22.1256 11.9231 21.4536 14.2367 20.9112 16.5551C20.2553 19.3883 19.764 22.2571 19.44 25.1471C18.4635 24.5176 17.6789 23.6317 17.172 22.5863C16.3848 20.9543 16.2168 18.9047 16.2168 16.2167C16.2167 15.7421 16.0759 15.2782 15.8122 14.8836C15.5485 14.489 15.1737 14.1815 14.7352 13.9999C14.2967 13.8183 13.8142 13.7707 13.3487 13.8633C12.8833 13.9559 12.4557 14.1844 12.12 14.5199C10.558 16.0786 9.31929 17.9304 8.47497 19.9691C7.63065 22.0078 7.19738 24.1933 7.20002 26.3999C7.20022 29.1626 7.88174 31.8826 9.1842 34.319C10.4867 36.7554 12.3699 38.833 14.667 40.3678C16.9642 41.9025 19.6044 42.8471 22.3538 43.1178C25.1032 43.3886 27.8769 42.9771 30.4293 41.9198C32.9816 40.8625 35.2339 39.1921 36.9865 37.0566C38.7392 34.921 39.9381 32.3861 40.4771 29.6765C41.0162 26.9669 40.8787 24.1662 40.0768 21.5225C39.2749 18.8787 37.8334 16.4735 35.88 14.5199C34.4592 13.1015 33.528 12.1559 32.6448 10.9991C31.7736 9.8567 30.9072 8.4479 29.748 6.1271ZM29.088 36.2879C28.0811 37.2936 26.7988 37.9783 25.4029 38.2556C24.0071 38.5329 22.5604 38.3903 21.2456 37.8459C19.9307 37.3014 18.8067 36.3796 18.0155 35.1967C17.2242 34.0138 16.8013 32.623 16.8 31.1999C16.8 31.1999 18.9096 32.3999 22.8 32.3999C22.8 29.9999 24 22.7999 25.8 21.5999C27 23.9999 27.6864 24.7031 29.0904 26.1095C29.7601 26.7771 30.2912 27.5706 30.6533 28.4441C31.0153 29.3177 31.2011 30.2543 31.2 31.1999C31.2011 32.1455 31.0153 33.0821 30.6533 33.9557C30.2912 34.8292 29.7601 35.6227 29.0904 36.2903L29.088 36.2879Z" fill="#81E6D9"/>
<path fill-rule="evenodd" clip-rule="evenodd" d="M31.3547 36.3881C29.9982 37.7429 28.2706 38.6654 26.3901 39.039C24.5096 39.4125 22.5606 39.2205 20.7892 38.487C19.0178 37.7535 17.5035 36.5116 16.4375 34.918C15.3715 33.3244 14.8017 31.4507 14.8 29.5334C14.8 29.5334 17.6421 31.1501 22.8834 31.1501C22.8834 27.9168 24.5 18.2168 26.925 16.6001C28.5417 19.8334 29.4664 20.7808 31.3579 22.6755C32.2602 23.575 32.9757 24.6439 33.4635 25.8208C33.9512 26.9977 34.2015 28.2594 34.2 29.5334C34.2015 30.8074 33.9512 32.0691 33.4635 33.246C32.9757 34.423 32.2602 35.4919 31.3579 36.3913L31.3547 36.3881Z" fill="#FF1EAB"/>
</svg>
