<svg width="100%" height="243" viewBox="0 0 1580 243" fill="none" xmlns="http://www.w3.org/2000/svg">
<g clip-path="url(#clip0_814_2169)">
<rect width="100%" height="243" rx="16" fill="#2D3748"/>
<circle cx="239.5" cy="15.5" r="112.5" fill="#0987A0"/>
<circle cx="55" cy="395" r="400" fill="#00A3C4"/>
<path d="M74.4162 135V108.818H91.7514V113.382H79.9517V119.621H90.6009V124.185H79.9517V135H74.4162ZM106.734 126.639V115.364H112.18V135H106.952V131.433H106.747C106.304 132.584 105.567 133.509 104.536 134.207C103.513 134.906 102.264 135.256 100.79 135.256C99.4773 135.256 98.3224 134.957 97.3253 134.361C96.3281 133.764 95.5483 132.916 94.9858 131.817C94.4318 130.717 94.1506 129.401 94.142 127.866V115.364H99.5881V126.895C99.5966 128.054 99.9077 128.97 100.521 129.643C101.135 130.317 101.957 130.653 102.989 130.653C103.645 130.653 104.259 130.504 104.83 130.206C105.401 129.899 105.861 129.447 106.21 128.851C106.568 128.254 106.743 127.517 106.734 126.639ZM121.983 123.648V135H116.537V115.364H121.727V118.828H121.957C122.392 117.686 123.12 116.783 124.143 116.118C125.166 115.445 126.406 115.108 127.863 115.108C129.227 115.108 130.416 115.406 131.43 116.003C132.444 116.599 133.233 117.452 133.795 118.56C134.358 119.659 134.639 120.972 134.639 122.497V135H129.193V123.469C129.201 122.267 128.895 121.33 128.272 120.656C127.65 119.974 126.794 119.634 125.703 119.634C124.97 119.634 124.322 119.791 123.76 120.107C123.206 120.422 122.771 120.882 122.456 121.487C122.149 122.084 121.991 122.804 121.983 123.648ZM146.167 135.32C144.675 135.32 143.325 134.936 142.114 134.169C140.913 133.393 139.958 132.256 139.251 130.756C138.552 129.247 138.202 127.398 138.202 125.207C138.202 122.957 138.565 121.087 139.289 119.595C140.013 118.095 140.977 116.974 142.178 116.233C143.388 115.483 144.714 115.108 146.154 115.108C147.254 115.108 148.17 115.295 148.903 115.67C149.644 116.037 150.241 116.497 150.692 117.051C151.153 117.597 151.502 118.134 151.741 118.662H151.907V108.818H157.34V135H151.971V131.855H151.741C151.485 132.401 151.123 132.942 150.654 133.479C150.194 134.007 149.593 134.446 148.852 134.795C148.119 135.145 147.224 135.32 146.167 135.32ZM147.893 130.986C148.771 130.986 149.512 130.747 150.117 130.27C150.731 129.784 151.2 129.107 151.523 128.237C151.856 127.368 152.022 126.349 152.022 125.182C152.022 124.014 151.86 123 151.536 122.139C151.212 121.278 150.744 120.614 150.13 120.145C149.516 119.676 148.771 119.442 147.893 119.442C146.998 119.442 146.244 119.685 145.63 120.17C145.016 120.656 144.552 121.33 144.237 122.19C143.921 123.051 143.763 124.048 143.763 125.182C143.763 126.324 143.921 127.334 144.237 128.212C144.56 129.081 145.025 129.763 145.63 130.257C146.244 130.743 146.998 130.986 147.893 130.986ZM178.156 120.963L173.17 121.27C173.085 120.844 172.902 120.46 172.62 120.119C172.339 119.77 171.968 119.493 171.508 119.288C171.056 119.075 170.515 118.969 169.885 118.969C169.041 118.969 168.329 119.148 167.75 119.506C167.17 119.855 166.88 120.324 166.88 120.912C166.88 121.381 167.068 121.777 167.443 122.101C167.818 122.425 168.461 122.685 169.373 122.881L172.927 123.597C174.836 123.989 176.26 124.619 177.197 125.489C178.135 126.358 178.603 127.5 178.603 128.915C178.603 130.202 178.224 131.331 177.466 132.303C176.716 133.274 175.684 134.033 174.372 134.578C173.068 135.115 171.564 135.384 169.859 135.384C167.26 135.384 165.189 134.842 163.646 133.76C162.112 132.669 161.213 131.186 160.949 129.311L166.305 129.03C166.467 129.822 166.859 130.428 167.481 130.845C168.103 131.254 168.9 131.459 169.872 131.459C170.826 131.459 171.593 131.276 172.173 130.909C172.761 130.534 173.059 130.053 173.068 129.464C173.059 128.97 172.85 128.565 172.441 128.25C172.032 127.926 171.402 127.679 170.549 127.509L167.149 126.831C165.231 126.447 163.804 125.783 162.866 124.837C161.937 123.891 161.473 122.685 161.473 121.219C161.473 119.957 161.814 118.871 162.495 117.959C163.186 117.047 164.153 116.344 165.397 115.849C166.65 115.355 168.116 115.108 169.795 115.108C172.275 115.108 174.227 115.632 175.65 116.68C177.082 117.729 177.917 119.156 178.156 120.963Z" fill="white"/>
</g>
<defs>
<clipPath id="clip0_814_2169">
<rect width="100%" height="243" rx="16" fill="white"/>
</clipPath>
</defs>
</svg>
