<svg width="24" height="24" viewBox="0 0 24 24" fill="none" xmlns="http://www.w3.org/2000/svg">
<rect x="0.5" y="0.5" rx="3.5" fill="#fff"/>
<rect x="0.5" y="0.5" width="23" height="23" rx="3.5" stroke="#fff"/>
<path fill-rule="evenodd" clip-rule="evenodd" d="M13.2171 6.63563C12.3107 6.43055 11.3672 6.45842 10.4745 6.71663C9.5846 6.97403 8.77418 7.45195 8.11834 8.10601L6.4987 9.62792V7.59871C6.4987 7.29489 6.2524 7.04858 5.94857 7.04858C5.64474 7.04858 5.39844 7.29489 5.39844 7.59871V10.8995C5.39844 10.9 5.39844 10.9005 5.39844 10.901C5.39871 11.0357 5.44815 11.1706 5.54766 11.2765C5.65999 11.396 5.81315 11.4542 5.96516 11.4496H9.24935C9.55318 11.4496 9.79948 11.2033 9.79948 10.8995C9.79948 10.5957 9.55318 10.3494 9.24935 10.3494H7.33766L8.87789 8.90208L8.89027 8.89008C9.41583 8.36426 10.066 7.98014 10.7802 7.77357C11.4943 7.567 12.2492 7.5447 12.9743 7.70877C13.6994 7.87283 14.3711 8.21791 14.9268 8.71179C15.4825 9.20568 15.904 9.83228 16.152 10.5331C16.2533 10.8196 16.5677 10.9696 16.8541 10.8682C17.1405 10.7669 17.2906 10.4525 17.1892 10.1661C16.8792 9.29003 16.3523 8.50678 15.6577 7.88942C14.9631 7.27206 14.1235 6.84071 13.2171 6.63563ZM16.6629 13.6501H14.7508C14.447 13.6501 14.2007 13.4038 14.2007 13.0999C14.2007 12.7961 14.447 12.5498 14.7508 12.5498H18.0516C18.3554 12.5498 18.6017 12.7961 18.6017 13.0999V16.4007C18.6017 16.7045 18.3554 16.9508 18.0516 16.9508C17.7478 16.9508 17.5015 16.7045 17.5015 16.4007V14.3719L15.8817 15.894C15.2258 16.5481 14.4154 17.026 13.5255 17.2834C12.6328 17.5416 11.6893 17.5694 10.7829 17.3644C9.87651 17.1593 9.03685 16.7279 8.34226 16.1106C7.64767 15.4932 7.12079 14.71 6.81078 13.8339C6.70942 13.5475 6.85945 13.2331 7.14587 13.1318C7.4323 13.0304 7.74666 13.1804 7.84801 13.4669C8.09602 14.1677 8.51752 14.7943 9.0732 15.2882C9.62887 15.7821 10.3006 16.1272 11.0257 16.2912C11.7508 16.4553 12.5057 16.433 13.2198 16.2264C13.934 16.0199 14.5842 15.6357 15.1097 15.1099L15.1171 15.1027L15.1221 15.0979L16.6629 13.6501Z" fill="#2D3748"/>
</svg>
