<svg>
<path d="M26.3999 40.9986C26.4001 41.4076 26.5048 41.8097 26.7041 42.1668C26.9033 42.5239 27.1906 42.8242 27.5385 43.0391C27.8863 43.254 28.2834 43.3765 28.6919 43.3949C29.1004 43.4133 29.5069 43.327 29.8727 43.1442L39.4727 38.3442C39.8713 38.1451 40.2066 37.8388 40.441 37.4599C40.6754 37.0809 40.7997 36.6442 40.7999 36.1986V22.365C40.7997 21.9561 40.695 21.554 40.4957 21.1969C40.2965 20.8398 40.0093 20.5395 39.6614 20.3246C39.3135 20.1096 38.9164 19.9871 38.5079 19.9687C38.0994 19.9503 37.6929 20.0366 37.3271 20.2194L27.7271 25.0194C27.3285 25.2186 26.9932 25.5248 26.7588 25.9038C26.5244 26.2827 26.4001 26.7194 26.3999 27.165V40.9986Z" fill="#81E6D9"/>
<path d="M36.5064 15.2611C36.9045 15.0616 37.2393 14.7552 37.4732 14.3763C37.7071 13.9974 37.831 13.5608 37.831 13.1155C37.831 12.6702 37.7071 12.2337 37.4732 11.8547C37.2393 11.4758 36.9045 11.1695 36.5064 10.9699L25.0728 5.25312C24.7397 5.08666 24.3724 5 24 5C23.6276 5 23.2603 5.08666 22.9272 5.25312L11.4936 10.9699C11.0955 11.1695 10.7607 11.4758 10.5268 11.8547C10.2928 12.2337 10.1689 12.6702 10.1689 13.1155C10.1689 13.5608 10.2928 13.9974 10.5268 14.3763C10.7607 14.7552 11.0955 15.0616 11.4936 15.2611L22.9272 20.9779C23.2603 21.1444 23.6276 21.231 24 21.231C24.3724 21.231 24.7397 21.1444 25.0728 20.9779L36.5064 15.2611Z" fill="#81E6D9"/>
<path d="M10.6728 20.2194C10.3069 20.0366 9.90049 19.9503 9.49197 19.9687C9.08344 19.9871 8.68639 20.1096 8.3385 20.3246C7.9906 20.5395 7.7034 20.8398 7.50414 21.1969C7.30488 21.554 7.20017 21.9561 7.19995 22.365V36.1986C7.20019 36.6442 7.32447 37.0809 7.55888 37.4599C7.79328 37.8388 8.12856 38.145 8.52715 38.3442L18.1272 43.1442C18.493 43.327 18.8994 43.4133 19.3079 43.3949C19.7165 43.3765 20.1135 43.254 20.4614 43.0391C20.8093 42.8242 21.0965 42.5239 21.2958 42.1668C21.495 41.8097 21.5997 41.4076 21.6 40.9986V27.165C21.5997 26.7194 21.4754 26.2827 21.241 25.9038C21.0066 25.5248 20.6713 25.2186 20.2728 25.0194L10.6728 20.2194Z" fill="#FF1EAB"/>
</svg>
